<?xml version="1.0" encoding="UTF-8" standalone="no"?>
<!-- Created with Inkscape (http://www.inkscape.org/) -->

<svg
   xmlns:dc="http://purl.org/dc/elements/1.1/"
   xmlns:cc="http://creativecommons.org/ns#"
   xmlns:rdf="http://www.w3.org/1999/02/22-rdf-syntax-ns#"
   xmlns:svg="http://www.w3.org/2000/svg"
   xmlns="http://www.w3.org/2000/svg"
   xmlns:sodipodi="http://sodipodi.sourceforge.net/DTD/sodipodi-0.dtd"
   xmlns:inkscape="http://www.inkscape.org/namespaces/inkscape"
   id="svg7384"
   width="16"
   height="16"
   version="1.1"
   sodipodi:docname="network-vpn-symbolic-green.svg"
   inkscape:version="0.92.5 (2060ec1f9f, 2020-04-08)">
  <defs
     id="defs12" />
  <sodipodi:namedview
     pagecolor="#ffffff"
     bordercolor="#666666"
     borderopacity="1"
     objecttolerance="10"
     gridtolerance="10"
     guidetolerance="10"
     inkscape:pageopacity="0"
     inkscape:pageshadow="2"
     inkscape:window-width="3840"
     inkscape:window-height="2111"
     id="namedview10"
     showgrid="false"
     inkscape:zoom="59"
     inkscape:cx="-1.1460855"
     inkscape:cy="3.8134737"
     inkscape:window-x="0"
     inkscape:window-y="25"
     inkscape:window-maximized="1"
     inkscape:current-layer="svg7384" />
  <metadata
     id="metadata90">
    <rdf:RDF>
      <cc:Work
         rdf:about="">
        <dc:format>image/svg+xml</dc:format>
        <dc:type
           rdf:resource="http://purl.org/dc/dcmitype/StillImage" />
        <dc:title>Gnome Symbolic Icon Theme</dc:title>
      </cc:Work>
    </rdf:RDF>
  </metadata>
  <title
     id="title9167">Gnome Symbolic Icon Theme</title>
  <g
     id="layer9"
     transform="translate(-221 -237)">
    <path
       id="path12679-6"
       d="m228 247v3h2v-3h-2z"
       style="block-progression:tb;color:#bebebe;fill:#bebebe;text-indent:0;text-transform:none" />
    <path
       id="path12681-3"
       d="m223 250v2h12v-2h-12z"
       style="block-progression:tb;color:#bebebe;fill:#bebebe;text-indent:0;text-transform:none" />
    <rect
       id="rect13312"
       x="225"
       y="242"
       width="8"
       height="6"
       ry="0"
       style="color:#bebebe;fill:#bebebe" />
    <path
       id="path13314"
       d="m229 238c-1.645 0-3 1.355-3 3v2 1h1 4 1v-1-2c0-1.645-1.355-3-3-3zm0 2c0.56413 0 1 0.43588 1 1v1h-2v-1c0-0.56412 0.43587-1 1-1z"
       style="block-progression:tb;color:#bebebe;fill:#bebebe;text-indent:0;text-transform:none" />
  </g>
  <path
     style="fill:#71c837;stroke-width:0.01694915"
     d="m 2.0098466,14.00517 v -0.991525 h 2.5 2.5 V 12.00517 10.996696 h -1.5 -1.5 V 8.0054263 5.0141569 l 0.4957627,-0.00449 0.4957628,-0.00449 0.00999,-0.6864406 C 5.0215587,3.6174466 5.0281575,3.5400183 5.1020119,3.2550049 5.3511782,2.2934405 6.09788,1.4895749 7.0418817,1.1666283 7.3484015,1.0617667 7.5427977,1.028955 7.9166263,1.018982 c 0.2966344,-0.00791 0.3659019,-0.00447 0.5544569,0.027542 0.475635,0.080758 0.8817673,0.2486528 1.2661709,0.5234332 0.5537229,0.3958142 0.9879839,1.0198402 1.1531649,1.6570817 0.08378,0.3232059 0.09017,0.3929622 0.10078,1.1001652 l 0.01017,0.6779661 0.495763,0.00449 0.495762,0.00449 v 2.9912694 2.9912694 h -1.5 -1.4999995 v 1.008474 1.008475 h 2.4999995 2.5 v 0.991525 0.991526 H 8.0013721 2.0098466 Z m 7,-9.5430871 c 0,-0.6093237 -0.013087,-0.7140804 -0.1153093,-0.9230143 C 8.850678,3.4494241 8.7972995,3.3767754 8.713468,3.2926314 8.5760051,3.1546563 8.4424782,3.0783871 8.2539821,3.0301778 7.6953427,2.887302 7.1349778,3.2295536 7.0183958,3.7848314 6.9994926,3.8748664 6.9934151,4.0352808 6.9931917,4.4500856 l -2.942e-4,0.5466102 h 1.0084746 1.0084745 z"
     id="path14"
     inkscape:connector-curvature="0" />
  <path
     style="fill:#37c837;stroke-width:0.01694915"
     d="m 2.0098466,14.00517 v -0.991525 h 2.5 2.5 V 12.00517 10.996696 h -1.5 -1.5 V 8.0051703 5.0136449 h 0.5 0.5 L 5.0106229,4.721272 C 5.0120331,4.1903051 5.0399488,3.5722268 5.0693458,3.421132 5.1546271,2.9828 5.3918529,2.4853948 5.6880709,2.1238144 5.8054263,1.9805638 6.0646021,1.728761 6.2065544,1.6200809 6.5299992,1.3724481 6.9653875,1.1705933 7.3742534,1.0787122 c 0.1212507,-0.027248 0.2359868,-0.036039 0.559322,-0.042854 0.3909756,-0.00824 0.4153402,-0.00683 0.6271187,0.036295 0.279118,0.056839 0.5256966,0.1390624 0.7439491,0.2480767 0.8324658,0.4158057 1.4383128,1.1960904 1.6219408,2.0889345 0.03722,0.1809836 0.06389,0.7183639 0.06554,1.3205824 l 7.76e-4,0.2838983 h 0.5 0.5 v 2.9915254 2.9915255 h -1.5 -1.4999995 v 1.008474 1.008475 h 2.4999995 2.5 v 0.991525 0.991526 H 8.0013721 2.0098466 Z M 9.005988,4.3992381 C 8.9999071,3.8413742 8.9970409,3.7944795 8.962737,3.691611 8.8518719,3.3591558 8.5740224,3.1002251 8.2448834,3.0226366 8.1067271,2.9900686 7.8958027,2.9901195 7.757357,3.0227553 7.4010758,3.1067381 7.0922854,3.4204344 7.0171956,3.7746763 6.9996831,3.8572925 6.9934092,4.0316119 6.9931917,4.4416122 L 6.9928975,4.9966958 H 8.002699 9.0125004 Z"
     id="path16"
     inkscape:connector-curvature="0" />
  <path
     style="fill:#37c837;stroke-width:0.01694915"
     d="m 2.0098466,14.00517 v -0.991525 h 2.5 2.5 V 12.00517 10.996696 h -1.5 -1.5 V 8.0051703 5.0136449 H 4.5071299 5.0044132 L 5.0159082,4.4670347 C 5.0309312,3.7526498 5.0509373,3.48893 5.1062346,3.2763568 5.2839727,2.5930979 5.7037444,1.9869871 6.2949631,1.5599452 6.4747353,1.4300943 6.8546085,1.2399821 7.0945924,1.1597611 7.3902295,1.0609364 7.5236588,1.0434822 8.0013721,1.0411433 c 0.4778698,-0.00234 0.5708322,0.011299 0.95696,0.1403994 1.0826189,0.3619695 1.9102599,1.398367 1.9988379,2.5030085 0.0097,0.1207132 0.02289,0.469142 0.02937,0.7742863 l 0.01177,0.5548074 h 0.497299 0.497298 v 2.9915254 2.9915257 h -1.5 -1.4999995 v 1.008474 1.008475 h 2.4999995 2.5 v 0.991525 0.991526 H 8.0013721 2.0098466 Z M 9.0056938,4.3992381 C 8.9993805,3.8904292 8.9938692,3.7879488 8.9685487,3.7085602 8.8618809,3.3741176 8.5727475,3.0999197 8.2453871,3.0227541 c -0.1386174,-0.032675 -0.3494127,-0.032675 -0.4880301,0 -0.3634314,0.085668 -0.6919343,0.4319317 -0.7471083,0.787501 -0.0094,0.060593 -0.017153,0.3523305 -0.017223,0.6483051 l -1.279e-4,0.5381356 h 1.0101046 1.0101047 z"
     id="path18"
     inkscape:connector-curvature="0" />
  <path
     style="fill:#37c837;stroke-width:0.01694915"
     d="m 2.0098466,14.00517 v -0.991525 h 2.5 2.5 V 12.00517 10.996696 h -1.5 -1.5 V 8.0051703 5.0136449 h 0.5 0.5 L 5.0100653,4.721272 C 5.0104043,4.2690666 5.0411107,3.5972585 5.0688476,3.4351986 5.1199573,3.1365773 5.2764139,2.7431063 5.4643507,2.4405525 5.8705527,1.7866214 6.5172619,1.308456 7.2690005,1.1062264 7.5856058,1.0210544 8.2944943,1.0073534 8.6115416,1.0802784 9.4113983,1.264256 10.057159,1.7123811 10.506093,2.3950003 c 0.203034,0.3087191 0.368603,0.7213328 0.426322,1.0624311 0.03049,0.1801745 0.05942,0.7847559 0.06007,1.2553656 l 4.15e-4,0.3008474 h 0.5 0.5 v 2.9915254 2.9915262 h -1.5 -1.4999995 v 1.008474 1.008475 h 2.4999995 2.5 v 0.991525 0.991526 H 8.0013721 2.0098466 Z M 9.0061438,4.3992381 C 8.9979077,3.8103797 8.9971556,3.79998 8.9538968,3.6766815 8.8474282,3.3732198 8.6120836,3.1436859 8.2979822,3.0369615 8.1535648,2.9878919 7.8360987,2.9921208 7.6822895,3.0451634 7.5482571,3.0913858 7.3428119,3.2231783 7.2628843,3.3142108 7.1693054,3.4207914 7.0789126,3.5736312 7.0404044,3.6903885 7.0061644,3.7942051 7.0031988,3.842412 6.9967988,4.3992381 l -0.00687,0.5974577 H 8.002216 9.0145002 Z"
     id="path20"
     inkscape:connector-curvature="0" />
  <path
     style="fill:#44aa00;stroke-width:0.01694915"
     d="m 2.0098466,14.00517 v -0.991525 h 2.5 2.5 V 12.00517 10.996696 h -1.5 -1.5 V 8.0051703 5.0136449 h 0.5 0.5 L 5.0100721,4.6788992 C 5.0103856,4.21498 5.038988,3.6100637 5.0688792,3.4351986 5.1271646,3.0942269 5.3392144,2.6022165 5.5646724,2.2848314 5.7338593,2.0466608 6.0944988,1.6924476 6.3219463,1.5410511 6.635911,1.3320659 7.01296,1.1625274 7.3244105,1.0902972 c 0.2450419,-0.056829 0.8598451,-0.079654 1.1143929,-0.041372 0.5750271,0.086479 1.1361082,0.3566781 1.5691516,0.7556546 0.448397,0.4131224 0.777209,0.9752599 0.907558,1.5515616 0.04251,0.1879244 0.06004,0.4491149 0.07175,1.0685204 l 0.01113,0.588983 h 0.497254 0.497253 v 2.9915254 2.9915258 h -1.5 -1.4999995 v 1.008474 1.008475 h 2.4999995 2.5 v 0.991525 0.991526 H 8.0013721 2.0098466 Z M 9.0047587,4.4077127 C 8.9936443,3.7589607 8.9892877,3.7271395 8.8842034,3.5271639 8.7678292,3.305703 8.5421626,3.1163675 8.3071607,3.0430212 8.1376649,2.99012 7.8451265,2.9916217 7.6878127,3.0462003 7.3829077,3.1519846 7.1479521,3.3869697 7.0424829,3.691611 7.0064326,3.7957408 7.0039171,3.8345344 6.9966005,4.3992381 l -0.00774,0.5974577 H 8.0018552 9.01485 Z"
     id="path22"
     inkscape:connector-curvature="0" />
</svg>
